# xmcd
#
# Track frame offsets: 
#        150
#        24524
#        40418
#        60517
#        82973
#        100895
#        120615
#        143110
#        165713
#        183520
#        203411
#        219336
#        240101
#
# Disc length: 3447 seconds
#
# Revision: 1
# Processed by: cddbd v1.5.2PL0 Copyright (c) Steve Scherf et al.
# Submitted via: ExactAudioCopy v0.99pb5
#
DISCID=a10d750d
DTITLE=Theatres des Vampires - Moonlight Waltz
DYEAR=2011
DGENRE=Gothic metal
TTITLE0=Keeper Of Secrets
TTITLE1=Fly Away
TTITLE2=Moonlight Waltz
TTITLE3=Carmilla
TTITLE4=Sangue
TTITLE5=Figlio Della Luna
TTITLE6=Black Madonna
TTITLE7=Illusion
TTITLE8=Le Grand Guignol
TTITLE9=Obsession
TTITLE10=The Gates Of Hades
TTITLE11=Medousa
TTITLE12=Carmilla (radio edit)
EXTD=
EXTT0=
EXTT1=
EXTT2=
EXTT3=
EXTT4=
EXTT5=
EXTT6=
EXTT7=
EXTT8=
EXTT9=
EXTT10=
EXTT11=
EXTT12=
PLAYORDER=
